:FULLY-SPECIFIED
:FORCE-ALL-JOINTS-BE-3DOF
:DEGREES
408
root 4.5812 16.2189 -11.1945 1.44782 -38.756 -1.25119
lfemur -28.6677 7.12596 -10.2142
ltibia 45.5688 0 0
lfoot -11.9573 14.4165 0
ltoes 1.64393 0 0
rfemur -42.1184 -25.8657 26.2827
rtibia 87.1336 0 0
rfoot 4.67888 -3.59999 0
rtoes 38.6898 0 0
lowerback 5.72274 4.74084 -0.864558
upperback 1.72158 6.1976 -2.28508
thorax -1.25716 3.08888 -2.27379
lowerneck -6.23285 2.45397 7.39539
upperneck 3.74609 2.62934 0.175008
head 2.3868 1.42429 -1.11908
lclavicle -1.15007e-13 -2.4086e-15 0
lhumerus -45.6201 -17.7313 94.1901
lradius 51.4053 0 0
lwrist 19.4824 0 0
lhand -19.337 2.69294 0
lfingers 7.12502 0 0
lthumb 6.97984 32.5564 0
rclavicle -1.15007e-13 -2.4086e-15 0
rhumerus -45.4186 10.1779 -91.5899
rradius 64.3992 0 0
rwrist 7.78412 0 0
rhand -19.1692 -17.4869 0
rfingers 7.12502 0 0
rthumb 7.14184 -767.345 0
409
root 4.52726 16.1917 -11.0897 1.16754 -39.1447 -1.08067
lfemur -28.3128 7.73663 -10.2855
ltibia 46.3582 0 0
lfoot -12.8488 14.0913 0
ltoes 1.98831 0 0
rfemur -43.6785 -25.6853 26.1368
rtibia 86.8776 0 0
rfoot 4.24511 -2.44959 0
rtoes 37.1215 0 0
lowerback 5.90259 4.7403 -0.863961
upperback 1.76664 6.19153 -2.32399
thorax -1.30633 3.08522 -2.32764
lowerneck -6.2082 2.67933 7.5621
upperneck 3.74173 2.93602 -0.153103
head 2.40641 1.57005 -1.24269
lclavicle -7.8522e-14 6.25909e-16 0
lhumerus -45.5619 -17.6148 94.2063
lradius 51.1392 0 0
lwrist 19.0893 0 0
lhand -19.8844 2.26189 0
lfingers 7.12502 0 0
lthumb 6.45135 32.1414 0
rclavicle -7.8522e-14 6.25909e-16 0
rhumerus -45.3991 9.99994 -91.3462
rradius 64.8505 0 0
rwrist 7.87286 0 0
rhand -19.6876 -17.2551 0
rfingers 7.12502 0 0
rthumb 6.64133 -767.129 0
410
root 4.46849 16.1642 -10.9817 0.934003 -39.4608 -0.957715
lfemur -27.9787 8.33847 -10.3135
ltibia 47.1633 0 0
lfoot -13.7579 13.719 0
ltoes 2.26902 0 0
rfemur -45.1821 -25.3573 25.9134
rtibia 86.2911 0 0
rfoot 3.80333 -1.39462 0
rtoes 35.5209 0 0
lowerback 6.06825 4.71795 -0.825366
upperback 1.80841 6.15953 -2.35182
thorax -1.34919 3.06876 -2.38805
lowerneck -6.19423 2.91532 7.73998
upperneck 3.76005 3.25519 -0.490429
head 2.43793 1.72251 -1.37079
lclavicle -5.49741e-14 2.79805e-15 0
lhumerus -45.4752 -17.5089 94.2186
lradius 50.8279 0 0
lwrist 18.6329 0 0
lhand -20.4019 1.82758 0
lfingers 7.12502 0 0
lthumb 5.95174 31.7217 0
rclavicle -5.49741e-14 2.79805e-15 0
rhumerus -45.3622 9.79122 -91.0892
rradius 65.2839 0 0
rwrist 8.02366 0 0
rhand -20.2817 -17.0342 0
rfingers 7.12502 0 0
rthumb 6.06777 -766.924 0
411
root 4.40688 16.1374 -10.8742 0.754521 -39.6911 -0.885791
lfemur -27.6783 8.90739 -10.298
ltibia 47.9576 0 0
lfoot -14.6508 13.3128 0
ltoes 2.47351 0 0
rfemur -46.5756 -24.9013 25.6133
rtibia 85.4074 0 0
rfoot 3.36834 -0.484053 0
rtoes 33.9633 0 0
lowerback 6.2154 4.67406 -0.751389
upperback 1.8454 6.10197 -2.36793
thorax -1.38531 3.03968 -2.45262
lowerneck -6.19196 3.15305 7.92209
upperneck 3.79955 3.57486 -0.824517
head 2.47992 1.87589 -1.49855
lclavicle -4.56901e-14 4.16347e-15 0
lhumerus -45.3652 -17.4193 94.2279
lradius 50.486 0 0
lwrist 18.1356 0 0
lhand -20.8705 1.40659 0
lfingers 7.12502 0 0
lthumb 5.49933 31.3133 0
rclavicle -4.56901e-14 4.16347e-15 0
rhumerus -45.3122 9.55813 -90.8284
rradius 65.6885 0 0
rwrist 8.23167 0 0
rhand -20.9297 -16.8384 0
rfingers 7.12502 0 0
rthumb 5.44215 -766.744 0
412
root 4.34441 16.1124 -10.7708 0.636404 -39.8226 -0.868354
lfemur -27.4242 9.41928 -10.2389
ltibia 48.7142 0 0
lfoot -15.4934 12.8857 0
ltoes 2.58928 0 0
rfemur -47.805 -24.3369 25.2371
rtibia 84.2595 0 0
rfoot 2.95493 0.233141 0
rtoes 32.524 0 0
lowerback 6.33971 4.60892 -0.644646
upperback 1.87609 6.01925 -2.37169
thorax -1.41421 2.9982 -2.51896
lowerneck -6.20246 3.38363 8.10146
upperneck 3.85875 3.88307 -1.14291
head 2.53097 2.0244 -1.62113
lclavicle -5.19965e-14 4.77779e-15 0
lhumerus -45.2373 -17.3516 94.2352
lradius 50.1279 0 0
lwrist 17.6195 0 0
lhand -21.2712 1.01551 0
lfingers 7.12502 0 0
lthumb 5.11244 30.9327 0
rclavicle -5.19965e-14 4.77779e-15 0
rhumerus -45.253 9.30706 -90.5732
rradius 66.0537 0 0
rwrist 8.49207 0 0
rhand -21.6098 -16.6815 0
rfingers 7.12502 0 0
rthumb 4.78542 -766.604 0
413
root 4.28307 16.09 -10.675 0.586965 -39.8419 -0.908864
lfemur -27.2293 9.85005 -10.136
ltibia 49.4067 0 0
lfoot -16.2519 12.4509 0
ltoes 2.60379 0 0
rfemur -48.8167 -23.6835 24.7856
rtibia 82.8805 0 0
rfoot 2.5779 0.708001 0
rtoes 31.2782 0 0
lowerback 6.43685 4.52283 -0.507752
upperback 1.89898 5.91174 -2.36246
thorax -1.43547 2.94451 -2.58469
lowerneck -6.22676 3.59818 8.27115
upperneck 3.93614 4.16783 -1.43316
head 2.58964 2.16228 -1.73373
lclavicle -7.522e-14 4.69665e-15 0
lhumerus -45.0968 -17.3115 94.2416
lradius 49.7683 0 0
lwrist 17.1067 0 0
lhand -21.5851 0.670927 0
lfingers 7.12502 0 0
lthumb 4.8094 30.596 0
rclavicle -7.522e-14 4.69665e-15 0
rhumerus -45.189 9.04442 -90.333
rradius 66.3687 0 0
rwrist 8.80002 0 0
rhand -22.3004 -16.5778 0
rfingers 7.12502 0 0
rthumb 4.11858 -766.516 0
414
root 4.22485 16.0713 -10.5906 0.613516 -39.7359 -1.01078
lfemur -27.1063 10.1756 -9.98912
ltibia 50.0085 0 0
lfoot -16.8922 12.0217 0
ltoes 2.50452 0 0
rfemur -49.5569 -22.9608 24.2594
rtibia 81.3034 0 0
rfoot 2.25205 0.891562 0
rtoes 30.3013 0 0
lowerback 6.50247 4.41607 -0.343322
upperback 1.91256 5.77983 -2.33959
thorax -1.44861 2.87881 -2.64741
lowerneck -6.2659 3.78781 8.4242
upperneck 4.03023 4.41718 -1.68281
head 2.65452 2.28374 -1.83151
lclavicle -1.16687e-13 3.97569e-15 0
lhumerus -44.949 -17.3046 94.2481
lradius 49.4217 0 0
lwrist 16.6193 0 0
lhand -21.7931 0.389413 0
lfingers 7.12502 0 0
lthumb 4.60852 30.3193 0
rclavicle -1.16687e-13 3.97569e-15 0
rhumerus -45.1241 8.77662 -90.1173
rradius 66.623 0 0
rwrist 9.1507 0 0
rhand -22.9798 -16.5412 0
rfingers 7.12502 0 0
rthumb 3.4626 -766.493 0
415
root 4.15756 16.0595 -10.5185 0.853573 -39.149 -1.38685
lfemur -27.1339 10.1839 -9.57846
ltibia 50.4784 0 0
lfoot -17.3264 11.4901 0
ltoes 2.02655 0 0
rfemur -49.3543 -21.6522 23.1015
rtibia 78.6958 0 0
rfoot 2.25185 0.516988 0
rtoes 29.3644 0 0
lowerback 6.53688 4.23156 -0.0259317
upperback 1.91669 5.55799 -2.24425
thorax -1.45383 2.76848 -2.71179
lowerneck -6.32588 3.90967 8.55028
upperneck 4.1114 4.57379 -1.8704
head 2.71413 2.35975 -1.9083
lclavicle -6.9816e-14 -1.48365e-15 0
lhumerus -44.7917 -17.5122 94.3229
lradius 49.1553 0 0
lwrist 16.2059 0 0
lhand -21.7551 0.276158 0
lfingers 7.12502 0 0
lthumb 4.64527 30.2052 0
rclavicle -6.9816e-14 -1.48365e-15 0
rhumerus -45.1418 8.40206 -89.917
rradius 66.871 0 0
rwrist 9.60651 0 0
rhand -23.7837 -16.8284 0
rfingers 7.12502 0 0
rthumb 2.68623 -766.788 0
416
root 4.08071 16.0471 -10.4426 1.13586 -38.3929 -1.86045
lfemur -27.1748 10.1226 -9.05549
ltibia 50.9591 0 0
lfoot -17.7729 10.9022 0
ltoes 1.39782 0 0
rfemur -48.8234 -19.9687 21.6209
rtibia 75.618 0 0
rfoot 2.43727 0.156644 0
rtoes 27.9112 0 0
lowerback 6.57558 4.025 0.348277
upperback 1.9252 5.31151 -2.11958
thorax -1.45722 2.64589 -2.7761
lowerneck -6.3787 4.01366 8.67721
upperneck 4.17034 4.70714 -2.05538
head 2.76368 2.4238 -1.98583
lclavicle -4.46067e-14 -4.06379e-15 0
lhumerus -44.6313 -17.8217 94.4372
lradius 48.9214 0 0
lwrist 15.7842 0 0
lhand -21.6851 0.19075 0
lfingers 7.12502 0 0
lthumb 4.7128 30.1183 0
rclavicle -4.46067e-14 -4.06379e-15 0
rhumerus -45.207 7.96351 -89.7021
rradius 67.1613 0 0
rwrist 10.07 0 0
rhand -24.6695 -17.2261 0
rfingers 7.12502 0 0
rthumb 1.83072 -767.192 0
